<?xml version="1.0" encoding="UTF-8"?><svg id="Layer_1" xmlns="http://www.w3.org/2000/svg" viewBox="0 0 121.863 161.728"><path d="m29.328,139.052c.09.696.095,1.104.199,1.486,1.48,5.412,2.971,10.821,4.465,16.23.098.355.237.699.28,1.13-10.914-7.73-21.602-15.748-32.304-23.807,4.339.54,8.678,1.08,13.26,1.65-.208-.628-.324-1.085-.508-1.514-4.551-10.582-9.108-21.16-13.665-31.74-.393-.913-.783-1.827-1.055-2.852,3.691,3.035,7.399,6.049,11.067,9.11,3.696,3.085,7.353,6.217,11.206,9.479v-16.76c1.005.861,1.486,2.04,2.161,3.083.701,1.083,1.349,2.2,2.022,3.3.673,1.101,1.35,2.199,2.023,3.3.652,1.065,1.301,2.132,1.951,3.198.672,1.102,1.342,2.205,2.015,3.305.673,1.101,1.352,2.198,2.025,3.299.673,1.101,1.341,2.204,2.015,3.305.674,1.101,1.353,2.198,2.027,3.298.674,1.1,1.345,2.202,2.018,3.304.651,1.066,1.3,2.133,1.953,3.197.675,1.1,1.352,2.198,2.032,3.295.666,1.073,1.336,2.144,2.235,3.143.029-.265.1-.533.082-.795-.368-5.191-.75-10.382-1.119-15.573-.112-1.579-.275-3.159-.277-4.739-.008-5.756-1.151-11.322-2.666-16.836-1.642-5.977-3.633-11.841-5.71-17.677-.153-.429-.296-.863-.417-1.302-.042-.153-.007-.327-.007-.339,1.685-1.726,3.278-3.358,4.963-5.083,6.506,6.191,12.788,12.553,19.202,18.975.37-.306.697-.538.978-.816,5.947-5.894,11.889-11.793,17.835-17.689.145-.144.319-.259.604-.488,1.651,1.635,3.294,3.262,5.031,4.983-.135.487-.247,1.003-.421,1.497-2.108,5.957-4.256,11.905-5.783,18.044-.792,3.187-1.485,6.405-2.063,9.637-.358,2.001-.453,4.052-.601,6.086-.338,4.651-.631,9.305-.951,13.957-.168,2.449-.357,4.897-.524,7.347-.021.302.036.609.189.954,8.176-13.055,16.2-26.164,24.253-39.441.064.362.147.616.149.872.037,4.54.071,9.08.086,13.621.002.697-.091,1.394-.16,2.376.485-.348.81-.55,1.101-.794,3.767-3.157,7.517-6.334,11.295-9.476,2.625-2.183,5.293-4.314,7.93-6.484.671-.552,1.295-1.16,2.113-1.678-.297.819-.551,1.655-.897,2.453-4.609,10.648-9.23,21.291-13.847,31.936-.207.478-.395.964-.692,1.692,4.64-.431,8.983-1.055,13.413-1.632-.008.429-.375.593-.635.784-9.542,6.984-19.09,13.959-28.636,20.937-.961.703-1.918,1.412-3.051,2.006.851-3.066,1.733-6.124,2.544-9.201.812-3.078,1.814-6.112,2.415-9.243-.08-.057-.161-.113-.241-.17-10.417,7.49-20.834,14.979-31.343,22.535-10.59-7.337-21.009-14.845-31.566-22.676Z"/><path d="m23.543,87.672c-3.547-.729-11.198-3-11.827-3.513,3.99-7.325,8.267-14.506,12.057-22.259.616-.118,1.454-.307,2.3-.436,7.644-1.172,15.013-3.304,22.13-6.319.345-.146.676-.324,1.023-.464.899-.363,1.47-1.018,1.882-1.891,1.285-2.728,2.055-5.618,2.767-8.528,1.136-4.64,1.471-9.372,1.443-14.125-.017-2.917-.442-5.808-1.196-8.633-.122-.457-.415-.916-.746-1.262-1.288-1.348-1.55-2.894-1.003-4.62.2-.632.41-1.268.691-1.867,1.204-2.57,2.066-5.255,2.856-7.974.356-1.226.804-2.469,1.458-3.555,1.901-3.156,5.377-2.67,7.308-.314,1.053,1.285,1.617,2.819,1.91,4.426.301,1.647.809,3.214,1.382,4.781.598,1.636,1.044,3.328,1.527,5.004.126.436.168.901.205,1.356.079.963-.143,1.837-.942,2.455-.701.543-1.073,1.243-1.206,2.105-.284,1.848-.706,3.683-.858,5.54-.685,8.338.48,16.418,3.398,24.274.779,2.098,2.039,3.372,4.13,4.1,4.637,1.613,9.277,3.197,14.093,4.199,2.522.525,5.049,1.032,7.579,1.519.703.135,1.172.433,1.531,1.101,3.33,6.192,6.697,12.364,10.057,18.54.514.945,1.051,1.879,1.668,2.981-.429.183-.773.375-1.141.478-3.322.929-6.648,1.844-9.975,2.756-.233.064-.482.07-.813.115-.238-.442-.459-.879-.703-1.304-1.035-1.802-2.026-3.633-3.127-5.394-2.164-3.462-5.195-5.94-8.956-7.49-2.685-1.107-5.414-2.107-8.237-3.199-5.345,5.314-10.66,10.512-15.903,15.933-5.199-5.269-10.395-10.536-15.6-15.811-4.324,1.316-8.51,2.702-12.198,5.19-1.326.895-2.521,2.061-3.562,3.285-1.921,2.257-3.443,4.796-4.674,7.502-.203.446-.473.861-.728,1.32Z"/></svg>