<?xml version="1.0" encoding="UTF-8"?><svg id="Layer_1" xmlns="http://www.w3.org/2000/svg" viewBox="0 0 128.911 161.688"><path d="m128.911,40.86c-.177-1.888-.356-3.775-.529-5.663-.018-.201-.002-.406-.212-.633-.076.626-.185,1.25-.22,1.879-.045.785-.05,1.573-.037,2.359.111,6.3-.32,12.571-.948,18.836-.433,4.323-.665,8.665-1.104,12.987-.544,5.35-1.134,10.697-1.842,16.027-.702,5.285-1.429,10.574-2.423,15.809-.73,3.847-1.802,7.641-2.94,11.394-.457,1.506-1.379,2.918-2.29,4.236-6.211,8.983-13.916,16.565-22.401,23.404-7.972,6.426-16.559,11.972-25.197,17.447-1.433.908-2.854,1.836-4.268,2.746-.312-.128-.558-.189-.761-.317-12.077-7.591-24.03-15.359-34.734-24.841-6.115-5.417-11.547-11.451-16.334-18.072-2.328-3.22-3.385-6.874-4.248-10.634-1.482-6.457-2.536-12.989-3.266-19.567-1.053-9.498-2.086-18.999-2.988-28.512-.753-7.95-1.308-15.919-1.942-23.88-.098-1.229-.15-2.462-.228-3.772.322-.046.601-.14.87-.117,5.57.491,11.14.525,16.725.218,3.373-.185,6.421-1.181,9.306-2.879,5.207-3.065,10.147-6.518,14.808-10.333,7.328-5.998,14.526-12.155,21.78-18.242.278-.234.573-.448.946-.739.371.298.689.543.995.801,7.276,6.126,14.448,12.38,21.867,18.331,4.299,3.448,8.956,6.463,13.522,9.572,3.366,2.292,7.111,3.41,11.25,3.557,5.213.185,10.408.112,15.608-.193.408-.024.823.061,1.235.095v8.697Zm-117.529,2.427c0,.561-.018.967.003,1.371.159,3.142.276,6.288.5,9.425.751,10.528,1.436,21.062,2.353,31.576.629,7.209,1.542,14.396,2.953,21.507.5,2.521.959,5.066,2.461,7.231,1.37,1.974,2.758,3.946,4.289,5.796,4.92,5.947,10.574,11.167,16.831,15.669,4.883,3.513,10.027,6.672,15.103,9.913,2.414,1.542,4.942,2.906,7.414,4.359.746.438,1.43.474,2.217.004,2.495-1.493,5.026-2.926,7.544-4.381,8.228-4.754,16.008-10.139,23.144-16.407,4.794-4.21,9.084-8.88,12.587-14.23.848-1.295,1.596-2.636,1.825-4.178.875-5.89,1.774-11.778,2.546-17.682.503-3.854.81-7.735,1.189-11.605.375-3.831.753-7.662,1.086-11.496.404-4.659.773-9.321,1.137-13.983.306-3.919.585-7.841.869-11.762.026-.354.003-.712.003-1.108-.465-.068-.788-.132-1.113-.159-3.317-.277-6.638-.511-9.95-.832-2.742-.266-5.489-.678-7.921-2.045-2.604-1.464-5.205-2.972-7.633-4.703-8.87-6.326-17.38-13.113-25.662-20.183-.238-.203-.536-.336-.823-.511-.845.689-1.618,1.313-2.383,1.944-8.335,6.875-16.749,13.647-25.641,19.81-3.742,2.594-7.589,4.922-12.211,5.677-3.748.612-7.499,1.073-11.304.987-.443-.01-.887-.001-1.412-.001Z"/><path d="m64.361,138.867c-1.973-1.035-3.975-2.037-5.931-3.122-7.628-4.231-14.809-9.103-21.038-15.222-2.329-2.288-4.378-4.871-6.427-7.421-2.236-2.782-3.334-6.064-3.796-9.573-1.005-7.625-2.121-15.237-3.005-22.876-1.028-8.876-1.853-17.775-2.774-26.663-.131-1.261-.305-2.517-.463-3.803,1.532,0,2.935-.011,4.337.003,1.665.017,3.331.093,4.995.07.998-.014,1.92-.248,2.801-.862,8.89-6.204,17.81-12.366,26.724-18.538,1.195-.828,2.393-1.652,3.604-2.457.366-.244.779-.42,1.156-.62,1.888,1.326,3.682,2.593,5.484,3.848,6.613,4.606,13.226,9.211,19.844,13.811,1.944,1.351,3.914,2.666,5.85,4.029.977.688,2.083.83,3.209.814,2.623-.038,5.245-.14,7.867-.213.288-.008.577-.001,1.067-.001-.102,1.327-.183,2.623-.304,3.915-.468,4.983-.916,9.969-1.435,14.947-.506,4.853-1.079,9.7-1.644,14.547-.513,4.395-.959,8.802-1.615,13.177-.551,3.675-1.249,7.338-2.096,10.956-.603,2.573-2.239,4.687-3.808,6.782-4.356,5.817-9.878,10.396-15.782,14.547-5.102,3.587-10.444,6.793-16.04,9.569-.184.091-.373.172-.778.357Z"/></svg>