<?xml version="1.0" encoding="UTF-8"?><svg id="Layer_1" xmlns="http://www.w3.org/2000/svg" viewBox="0 0 115.957 163.943"><path d="m57.804,163.943c-3.493-6.716-6.897-13.481-10.517-20.129-1.756-3.225-2.6-6.683-3.493-10.164-1.622-6.325-3.449-12.605-4.843-18.979-1.066-4.877-1.669-9.861-2.344-14.815-.737-5.407-1.324-10.834-1.965-16.254-.077-.649-.081-1.307-.111-1.834,2.761-1.73,5.455-3.297,7.998-5.077.936-.655,1.606-1.756,2.237-2.754,1.394-2.205,2.644-4.499,4.037-6.705.807-1.277,1.144-2.631,1.216-4.106.072-1.483.223-2.963.346-4.537,2.314-1.179,4.606-2.46,7.254-2.381,2.099.063,4.198.462,6.272.847,1.939.36,2.767,1.619,2.899,3.61.159,2.384.51,4.771.992,7.113.811,3.943,3.112,6.866,6.584,8.933,2.74,1.631,5.429,3.346,8.271,5.105-.205,2.633-.325,5.401-.653,8.144-.668,5.582-1.282,11.178-2.215,16.72-2.2,13.062-5.326,25.906-9.965,38.345-2.561,6.867-6.09,13.217-10.751,18.919h-1.25Zm-6.514-77.622c1.342,2.986,2.743,5.847,3.922,8.796,1.159,2.898,2.094,5.884,3.127,8.832.129-.027.258-.054.387-.081,2.109-5.915,3.433-12.132,6.779-17.692-1.941-2.536-3.914-5.119-6.96-6.696-2.683,2.053-5.338,3.962-7.254,6.842Z"/><path d="m45.58,57.185c-1.172,4.697-.29,10.303-4.855,14.26-.201-.26-.387-.458-.526-.685-5.461-8.961-11.324-17.644-18.046-25.732-.239-.287-.487-.567-.709-.867-1.603-2.169-3.529-3.401-6.462-3.049-1.683.202-3.492-.164-5.18-.552C3.909,39.205.256,34.261.015,28.228c-.198-4.972,1.551-8.839,5.34-11.951,5.93-4.87,15.134-3.842,20.021,2.436,3.423,4.398,4.225,9.267,2.078,14.473-.432,1.046-.272,1.934.153,2.849,1.376,2.962,3.349,5.519,5.561,7.897,4.038,4.34,8.104,8.656,12.412,13.253Zm-26.487-29.163c.021-2.671-1.994-4.692-4.715-4.729-2.511-.034-4.632,2.021-4.665,4.52-.033,2.519,2.186,4.829,4.691,4.883,2.486.053,4.669-2.122,4.689-4.674Z"/><path d="m75.451,71.683c-4.44-4.116-3.81-9.644-4.939-14.322,3.84-4.143,7.555-7.994,11.08-12.009,2.236-2.547,4.25-5.296,6.246-8.039,1.14-1.566,1.342-3.2.589-5.225-2.543-6.837.861-14.291,7.646-17.325,6.474-2.894,14.341-.193,17.976,6.173,2.936,5.142,2.447,11.306-1.21,15.806-2.131,2.622-5.042,3.717-8.246,4.155-1.682.23-3.405.31-5.101.241-1.391-.057-2.473.388-3.304,1.387-2.253,2.709-4.63,5.341-6.636,8.224-4.566,6.562-8.939,13.256-13.391,19.896-.201.3-.407.596-.71,1.038Zm26.248-48.392c-2.706-.009-4.812,1.897-4.795,4.34.019,2.777,2.198,5.076,4.783,5.047,2.48-.028,4.708-2.266,4.7-4.723-.007-2.548-2.126-4.657-4.688-4.665Z"/><path d="m113.257,144.017c-12.011-4.274-22.661-10.028-32.605-17.598,2.459-9.991,4.378-20.126,5.328-30.425.118-.07.237-.14.355-.211.465.545.908,1.111,1.399,1.633,8.883,9.441,16.194,19.936,21.62,31.707,1.899,4.119,3.264,8.399,4.046,12.858.1.571-.076,1.19-.144,2.035Z"/><path d="m29.669,95.713c1.771,10.334,3.519,20.538,5.298,30.921-9.676,7.238-20.324,13.11-31.805,17.236-1.007-.724-.705-1.513-.547-2.2,1.048-4.557,2.344-9.038,4.344-13.29,4.666-9.918,10.665-18.968,17.919-27.202,1.611-1.829,3.213-3.664,4.792-5.465Z"/><path d="m66.415,27.527v9.062c-5.426-2.262-10.726-2.857-16.059-.06v-9.016c-2.465-1.425-4.387-3.278-5.737-5.684-3.608-6.427-2.333-13.336,3.332-18.095,6.62-5.562,17.02-4.82,22.783,1.625,5.687,6.36,4.127,16.699-3.239,21.464-.31.201-.619.404-1.08.705Zm-1.805-12.75c-.021-3.357-2.739-5.94-6.222-5.912-3.3.027-6.245,2.771-6.289,5.861-.044,3.038,2.991,5.943,6.209,5.945,3.445.002,6.321-2.688,6.302-5.895Z"/><path d="m50.439,53.813v-12.816c4.439-2.476,8.975-2.944,13.7-1.471,2.192.683,2.382.975,2.385,3.266.005,3.144-.001,6.287-.002,9.431,0,.442,0,.883,0,1.164-2.8-.499-5.45-1.2-8.136-1.385-2.686-.185-5.401.181-7.947,1.811Z"/></svg>